<svg width="128" height="128" viewBox="0 0 128 128" fill="none" xmlns="http://www.w3.org/2000/svg">
<path d="M21.4919 42.0139H15.4861V36.0081H21.4919V42.0139ZM18.489 98.9963H15.4861V57.0103H12.5015V54.0073H15.4861V51.0044H18.489V48.0015H21.4919V92.9905H18.489V98.9963ZM15.4861 101.999H12.5015V98.9963H15.4861V101.999ZM39.4729 84H27.4795V81.0154H30.4641V57.0103H27.4795V54.0073H30.4641V51.0044H33.467V48.0015H36.47V54.0073H39.4729V57.0103H36.47V81.0154H39.4729V84ZM60.4751 84H48.4634V81.0154H51.4663V57.0103H48.4634V54.0073H39.4729V51.0044H51.4663V54.0073H54.4692V57.0103H57.4722V81.0154H60.4751V84ZM81.4773 84H69.4656V81.0154H72.4685V57.0103H69.4656V54.0073H60.4751V51.0044H72.4685V54.0073H75.4714V57.0103H78.4744V81.0154H81.4773V84ZM60.4751 57.0103H57.4722V54.0073H60.4751V57.0103ZM118.996 89.9875H86V86.9846H118.996V89.9875Z" fill="black"/>
</svg>
