<svg width="32" height="32" viewBox="0 0 32 32" fill="none" xmlns="http://www.w3.org/2000/svg">
	<style>
		@media (prefers-color-scheme: dark) {
      .letters { fill: #f0f0f0 }
    }
	</style>
	<path d="M27.2 5.6C27.2 7.58822 25.5882 9.2 23.6 9.2C21.6118 9.2 20 7.58822 20 5.6C20 3.61177 21.6118 2 23.6 2C25.5882 2 27.2 3.61177 27.2 5.6Z" fill="#FF4F00"/>
	<g class="letters" fill="#0e0e0e">
		<path d="M12.0065 4.42322H9.5537V24.9864C9.5537 25.6248 9.3857 25.8936 8.9825 25.8936C8.5793 25.8936 8.4113 25.6248 8.4113 24.9864V17.9976H5.9585V25.1208C5.9585 27.0024 7.1681 28.1448 8.9825 28.1448C10.7969 28.1448 12.0065 27.0024 12.0065 25.1208V4.42322Z"/>
		<path d="M22.8267 4.42322H18.8283L18.0555 18.0648L17.9211 22.7016H17.8539L17.6859 18.0312L16.9131 4.42322H12.9147V27.9432H15.2331L15.1323 8.11922H15.1995L15.4683 12.8232L16.6107 27.9432H19.1643L20.2731 12.8232L20.5419 8.11922H20.6091L20.5083 27.9432H22.8267V4.42322Z" />
	</g>
</svg>
